STARTFONT 2.1
FONT -FontForge-Roboto-Book-R-Normal--50-480-75-75-P-263-ISO10646-1
SIZE 48 75 75
FONTBOUNDINGBOX 26 36 1 0
COMMENT "Generated by fontforge, http://fontforge.sourceforge.net"
COMMENT "Copyright 2011 Google Inc. All Rights Reserved."
STARTPROPERTIES 36
FOUNDRY "FontForge"
FAMILY_NAME "Roboto"
WEIGHT_NAME "Book"
SLANT "R"
SETWIDTH_NAME "Normal"
ADD_STYLE_NAME ""
PIXEL_SIZE 50
POINT_SIZE 480
RESOLUTION_X 75
RESOLUTION_Y 75
SPACING "P"
AVERAGE_WIDTH 263
CHARSET_REGISTRY "ISO10646"
CHARSET_ENCODING "1"
FONTNAME_REGISTRY ""
CHARSET_COLLECTIONS "ISO10646-1"
FONT_NAME "Roboto-Regular"
FACE_NAME "Roboto"
COPYRIGHT "Copyright 2011 Google Inc. All Rights Reserved."
FONT_VERSION "2.137; 2017"
FONT_ASCENT 38
FONT_DESCENT 12
UNDERLINE_POSITION -5
UNDERLINE_THICKNESS 3
RAW_ASCENT 750
RAW_DESCENT 250
RELATIVE_WEIGHT 40
RELATIVE_SETWIDTH 50
SUPERSCRIPT_X 0
SUPERSCRIPT_Y 23
SUPERSCRIPT_SIZE 32
SUBSCRIPT_X 0
SUBSCRIPT_Y 7
SUBSCRIPT_SIZE 32
FIGURE_WIDTH 28
AVG_LOWERCASE_WIDTH 230
ENDPROPERTIES
CHARS 12
STARTCHAR period
ENCODING 46
SWIDTH 263 0
DWIDTH 13 0
BBX 5 5 4 0
BITMAP
F0
F8
F8
F8
F0
ENDCHAR
STARTCHAR zero
ENCODING 48
SWIDTH 561 0
DWIDTH 28 0
BBX 22 36 3 0
BITMAP
01FE00
07FF80
0FFFC0
1FFFE0
3F03F0
7E01F8
7C00F8
780078
F8007C
F8007C
F8007C
F0003C
F0003C
F0003C
F0003C
F0003C
F0003C
F0003C
F0003C
F0003C
F0003C
F0003C
F0003C
F0003C
F0003C
F8007C
F8007C
78007C
7C0078
7C00F8
3E01F8
3F03F0
1FFFE0
0FFFC0
07FF80
01FE00
ENDCHAR
STARTCHAR one
ENCODING 49
SWIDTH 561 0
DWIDTH 28 0
BBX 14 36 4 0
BITMAP
000C
007C
01FC
0FFC
7FFC
FFFC
FE7C
F07C
C07C
007C
007C
007C
007C
007C
007C
007C
007C
007C
007C
007C
007C
007C
007C
007C
007C
007C
007C
007C
007C
007C
007C
007C
007C
007C
007C
007C
ENDCHAR
STARTCHAR two
ENCODING 50
SWIDTH 561 0
DWIDTH 28 0
BBX 24 36 2 0
BITMAP
00FF00
07FFC0
0FFFF0
1FFFF8
3F81F8
3E00FC
7C007C
78003C
F8003E
F8003E
F8003E
00003C
00003C
00007C
000078
0000F8
0001F0
0003E0
0003E0
0007C0
000F80
001F00
003E00
007C00
00F800
01F000
03F000
07E000
07C000
0F8000
1F0000
3E0000
7FFFFF
7FFFFF
7FFFFF
7FFFFF
ENDCHAR
STARTCHAR three
ENCODING 51
SWIDTH 561 0
DWIDTH 28 0
BBX 23 36 2 0
BITMAP
00FE00
07FFC0
0FFFE0
1FFFF0
3F81F8
3E00F8
7C007C
7C007C
78003C
78003C
00003C
00003C
00007C
000078
0000F8
0003F0
00FFE0
00FF80
00FFC0
00FFF0
0003F8
0000FC
00007C
00003E
00003E
00003E
F8003E
F8003E
78003E
7C007C
7E00FC
3F81F8
1FFFF8
0FFFE0
07FFC0
00FE00
ENDCHAR
STARTCHAR four
ENCODING 52
SWIDTH 561 0
DWIDTH 28 0
BBX 26 36 1 0
BITMAP
0000F800
0001F800
0001F800
0003F800
0007F800
0007F800
000FF800
001FF800
001EF800
003EF800
003CF800
0078F800
00F8F800
00F0F800
01E0F800
03E0F800
03C0F800
07C0F800
0F80F800
0F00F800
1F00F800
1E00F800
3C00F800
7C00F800
7FFFFFC0
FFFFFFC0
FFFFFFC0
FFFFFFC0
0000F800
0000F800
0000F800
0000F800
0000F800
0000F800
0000F800
0000F800
ENDCHAR
STARTCHAR five
ENCODING 53
SWIDTH 561 0
DWIDTH 28 0
BBX 22 36 4 0
BITMAP
1FFFF8
1FFFF8
1FFFF8
3FFFF8
3E0000
3E0000
3C0000
3C0000
3C0000
3C0000
3C0000
3C0000
3CFE00
7FFF80
7FFFE0
7FFFE0
7E07F0
7C01F8
0000F8
00007C
00007C
00007C
00007C
00003C
00007C
00007C
F0007C
F0007C
F8007C
F800F8
7C01F8
7F03F0
3FFFE0
1FFFC0
07FF80
01FE00
ENDCHAR
STARTCHAR six
ENCODING 54
SWIDTH 561 0
DWIDTH 28 0
BBX 23 36 3 0
BITMAP
0007C0
007FC0
00FFC0
03FFC0
07F800
0FC000
0F8000
1F0000
3E0000
3C0000
3C0000
7C0000
787F00
79FFC0
7BFFE0
FFFFF0
FF83F8
FE00F8
FC007C
F8007C
F8003C
F8003E
F8003E
F8003E
F8003E
F8003E
78003E
7C003C
7C007C
3E007C
3F00F8
1F83F8
0FFFF0
07FFE0
03FF80
00FE00
ENDCHAR
STARTCHAR seven
ENCODING 55
SWIDTH 561 0
DWIDTH 28 0
BBX 24 36 2 0
BITMAP
FFFFFF
FFFFFF
FFFFFF
FFFFFF
00001E
00003E
00003C
00003C
000078
000078
0000F0
0000F0
0001F0
0001E0
0003E0
0003C0
0007C0
000780
000F80
000F00
000F00
001F00
001E00
003E00
003C00
007C00
007800
00F800
00F800
01F000
01F000
01E000
03E000
03C000
07C000
0F8000
ENDCHAR
STARTCHAR eight
ENCODING 56
SWIDTH 561 0
DWIDTH 28 0
BBX 22 36 3 0
BITMAP
01FE00
07FF80
0FFFC0
1FFFE0
3F03F0
7E01F8
7C00F8
7C0078
780078
78007C
78007C
780078
7C0078
7C00F8
3E01F0
1F03F0
1FFFE0
07FF80
07FF80
1FFFE0
3F03F0
7C00F8
780078
F8007C
F0003C
F0003C
F0003C
F0003C
F8007C
F8007C
7C00F8
7F03F8
3FFFF0
1FFFE0
0FFFC0
01FE00
ENDCHAR
STARTCHAR nine
ENCODING 57
SWIDTH 561 0
DWIDTH 28 0
BBX 23 36 2 0
BITMAP
00FE00
03FF80
0FFFC0
1FFFE0
1F83F0
3E01F8
7C00F8
7C007C
78007C
78003C
78003C
F8003E
F8003E
F8003E
78003E
78003E
7C003E
7C007E
3E00FE
3F83FE
1FFFFE
0FFFBC
07FF3C
01FC3C
00003C
00007C
000078
0000F8
0000F0
0001F0
0007E0
003FC0
07FF80
07FF00
07FC00
07E000
ENDCHAR
STARTCHAR ordmasculine
ENCODING 186
SWIDTH 454 0
DWIDTH 23 0
BBX 17 19 3 17
BITMAP
07F000
1FFC00
3FFE00
7C3E00
780F00
780F00
F00780
F00780
F00780
F00780
F00780
F00780
F00780
780F00
780F00
7C1E00
3FFE00
1FFC00
07F000
ENDCHAR
ENDFONT
